<?xml version="1.0" encoding="UTF-8" standalone="no"?>
<!DOCTYPE svg PUBLIC "-//W3C//DTD SVG 1.1//EN" "http://www.w3.org/Graphics/SVG/1.1/DTD/svg11.dtd">
<svg width="100%" height="100%" viewBox="0 0 512 512" version="1.1" xmlns="http://www.w3.org/2000/svg" xmlns:xlink="http://www.w3.org/1999/xlink" xml:space="preserve" xmlns:serif="http://www.serif.com/" style="fill-rule:evenodd;clip-rule:evenodd;stroke-linejoin:round;stroke-miterlimit:2;">
    <g transform="matrix(0.1,0,0,-0.1,0,512)">
        <path d="M3880,4718C3829,4704 3780,4663 3759,4616C3742,4578 3740,4542 3740,4080L3740,3585L3203,4122C2744,4580 2659,4660 2625,4669C2567,4685 2521,4682 2475,4661C2447,4648 2071,4277 1249,3454C-20,2182 50,2258 50,2158C50,2090 104,2012 169,1984C213,1966 281,1966 328,1985C354,1996 686,2321 1462,3098L2560,4195L3667,3088C4683,2073 4779,1981 4820,1970C4892,1951 4982,1975 5023,2024C5055,2062 5080,2118 5080,2151C5080,2241 5076,2245 4699,2625L4341,2985L4338,3785C4335,4516 4334,4588 4318,4616C4294,4660 4237,4707 4193,4719C4146,4732 3927,4732 3880,4718Z" style="fill:rgb(216,216,216);fill-rule:nonzero;"/>
        <path d="M1472,2757L390,1675L390,1104C390,738 394,512 401,474C440,261 620,70 835,15C887,2 1102,0 2560,0C4394,0 4274,-4 4410,62C4509,110 4619,224 4669,331C4691,377 4713,442 4719,474C4726,512 4730,738 4730,1104L4730,1675L3647,2758C3052,3353 2563,3840 2560,3840C2557,3840 2068,3353 1472,2757ZM3038,1941C3080,1919 3100,1899 3126,1850C3144,1817 3145,1781 3145,1180L3145,545L3121,503C3107,479 3079,448 3057,433L3017,405L2103,405L2063,433C2041,448 2013,479 1999,503L1975,545L1975,1180C1975,1810 1975,1815 1996,1855C2020,1900 2041,1920 2085,1943C2111,1957 2173,1959 2558,1960C2973,1960 3003,1959 3038,1941Z" style="fill:rgb(230,230,230);fill-rule:nonzero;"/>
    </g>
</svg>
